<svg width="3.779527559055118in" height="1.811023622047244in" viewBox="0 0 3.779527559055118 1.811023622047244" xmlns="http://www.w3.org/2000/svg" xmlnsXlink="http://www.w3.org/1999/xlink">
        <g transform="translate(0 1.811023622047244)">
          <g data-reactroot="" transform="scale(1, -1)"><g fill="none" stroke="rgb(0,0,0)"><g transform="matrix(1,0,0,1,1.141732283464567,0.9055118110236221)"><path class="outline" d="M -0.7948818897637795 -0.7283464566929134 C -0.7948818897637795 -0.7283464566929134 0.7948818897637795 -0.7283464566929134 0.7948818897637795 -0.7283464566929134 C 0.8777246022337795 -0.7283464566929134 0.9448818897637795 -0.6611891691629134 0.9448818897637795 -0.5783464566929134 C 0.9448818897637795 -0.5783464566929134 0.9448818897637795 0.5783464566929134 0.9448818897637795 0.5783464566929134 C 0.9448818897637795 0.6611891691629134 0.8777246022337795 0.7283464566929134 0.7948818897637795 0.7283464566929134 C 0.7948818897637795 0.7283464566929134 -0.7948818897637795 0.7283464566929134 -0.7948818897637795 0.7283464566929134 C -0.8777246022337795 0.7283464566929134 -0.9448818897637795 0.6611891691629134 -0.9448818897637795 0.5783464566929134 C -0.9448818897637795 0.5783464566929134 -0.9448818897637795 -0.5783464566929134 -0.9448818897637795 -0.5783464566929134 C -0.9448818897637795 -0.6611891691629134 -0.8777246022337795 -0.7283464566929134 -0.7948818897637795 -0.7283464566929134" stroke-width="0.01"></path></g></g><g fill="none" stroke="rgb(0,0,0)"><g transform="matrix(1,0,0,1,2.5196850393700787,0.6299212598425197)"><path class="outline" d="M 0 0.09695172182653088 C 0.0535449574316448 0.09695172182653088 0.09695172182653088 0.0535449574316448 0.09695172182653088 0 C 0.09695172182653088 -0.0535449574316448 0.0535449574316448 -0.09695172182653088 0 -0.09695172182653088 C -0.0535449574316448 -0.09695172182653088 -0.09695172182653088 -0.0535449574316448 -0.09695172182653088 0 C -0.09695172182653088 0.0535449574316448 -0.0535449574316448 0.09695172182653088 0 0.09695172182653088" stroke-width="0.01"></path></g></g><g fill="none" stroke="rgb(0,0,0)"><g transform="matrix(1,0,0,1,3.031496062992126,0.6299212598425197)"><path class="outline" d="M 0 0.09695172182653088 C 0.0535449574316448 0.09695172182653088 0.09695172182653088 0.0535449574316448 0.09695172182653088 0 C 0.09695172182653088 -0.0535449574316448 0.0535449574316448 -0.09695172182653088 0 -0.09695172182653088 C -0.0535449574316448 -0.09695172182653088 -0.09695172182653088 -0.0535449574316448 -0.09695172182653088 0 C -0.09695172182653088 0.0535449574316448 -0.0535449574316448 0.09695172182653088 0 0.09695172182653088" stroke-width="0.01"></path></g></g><g fill="none" stroke="rgb(0,0,0)"><g transform="matrix(1,0,0,1,3.543307086614173,0.6299212598425197)"><path class="outline" d="M 0 0.09695172182653088 C 0.0535449574316448 0.09695172182653088 0.09695172182653088 0.0535449574316448 0.09695172182653088 0 C 0.09695172182653088 -0.0535449574316448 0.0535449574316448 -0.09695172182653088 0 -0.09695172182653088 C -0.0535449574316448 -0.09695172182653088 -0.09695172182653088 -0.0535449574316448 -0.09695172182653088 0 C -0.09695172182653088 0.0535449574316448 -0.0535449574316448 0.09695172182653088 0 0.09695172182653088" stroke-width="0.01"></path></g></g><g fill="none" stroke="rgb(0,0,0)"><g transform="matrix(1,0,0,1,2.5196850393700787,0.23622047244094488)"><path class="outline" d="M 0 0.09695172182653088 C 0.0535449574316448 0.09695172182653088 0.09695172182653088 0.0535449574316448 0.09695172182653088 0 C 0.09695172182653088 -0.0535449574316448 0.0535449574316448 -0.09695172182653088 0 -0.09695172182653088 C -0.0535449574316448 -0.09695172182653088 -0.09695172182653088 -0.0535449574316448 -0.09695172182653088 0 C -0.09695172182653088 0.0535449574316448 -0.0535449574316448 0.09695172182653088 0 0.09695172182653088" stroke-width="0.01"></path></g></g><g fill="none" stroke="rgb(0,0,0)"><g transform="matrix(1,0,0,1,3.031496062992126,0.23622047244094488)"><path class="outline" d="M 0 0.09695172182653088 C 0.0535449574316448 0.09695172182653088 0.09695172182653088 0.0535449574316448 0.09695172182653088 0 C 0.09695172182653088 -0.0535449574316448 0.0535449574316448 -0.09695172182653088 0 -0.09695172182653088 C -0.0535449574316448 -0.09695172182653088 -0.09695172182653088 -0.0535449574316448 -0.09695172182653088 0 C -0.09695172182653088 0.0535449574316448 -0.0535449574316448 0.09695172182653088 0 0.09695172182653088" stroke-width="0.01"></path></g></g><g fill="none" stroke="rgb(0,0,0)"><g transform="matrix(1,0,0,1,3.543307086614173,0.23622047244094488)"><path class="outline" d="M 0 0.09695172182653088 C 0.0535449574316448 0.09695172182653088 0.09695172182653088 0.0535449574316448 0.09695172182653088 0 C 0.09695172182653088 -0.0535449574316448 0.0535449574316448 -0.09695172182653088 0 -0.09695172182653088 C -0.0535449574316448 -0.09695172182653088 -0.09695172182653088 -0.0535449574316448 -0.09695172182653088 0 C -0.09695172182653088 0.0535449574316448 -0.0535449574316448 0.09695172182653088 0 0.09695172182653088" stroke-width="0.01"></path></g></g><g fill="none" stroke="rgb(0,0,0)"><g transform="matrix(1,0,0,1,3.031496062992126,1.2997306371333206)"><path class="outline" d="M -0.3149606299212598 -0.37401574803149606 C -0.3149606299212598 -0.37401574803149606 0.3149606299212598 -0.37401574803149606 0.3149606299212598 -0.37401574803149606 C 0.3149606299212598 -0.37401574803149606 0.3149606299212598 0.37401574803149606 0.3149606299212598 0.37401574803149606 C 0.3149606299212598 0.37401574803149606 -0.3149606299212598 0.37401574803149606 -0.3149606299212598 0.37401574803149606 C -0.3149606299212598 0.37401574803149606 -0.3149606299212598 -0.37401574803149606 -0.3149606299212598 -0.37401574803149606" stroke-width="0.01"></path></g></g><g fill="none" stroke="rgb(235,235,235)"><g transform="matrix(1,0,0,1,1.889763779527559,0.905511811023622)"><path class="outline" d="M -1.889763779527559 -0.905511811023622 C -1.889763779527559 -0.905511811023622 1.889763779527559 -0.905511811023622 1.889763779527559 -0.905511811023622 C 1.889763779527559 -0.905511811023622 1.889763779527559 0.905511811023622 1.889763779527559 0.905511811023622 C 1.889763779527559 0.905511811023622 -1.889763779527559 0.905511811023622 -1.889763779527559 0.905511811023622 C -1.889763779527559 0.905511811023622 -1.889763779527559 -0.905511811023622 -1.889763779527559 -0.905511811023622" stroke-width="0.01"></path></g></g></g>
        </g>
      </svg>